<mxfile>
    <diagram id="pzcaLb88da6VexAs1_aC" name="Page-1">
        <mxGraphModel dx="1082" dy="-419" grid="1" gridSize="10" guides="1" tooltips="1" connect="1" arrows="1" fold="1" page="1" pageScale="1" pageWidth="827" pageHeight="1169" math="0" shadow="0">
            <root>
                <mxCell id="0"/>
                <mxCell id="1" parent="0"/>
                <mxCell id="YoeQHAKXdlg0IQOAOjzS-1" value="" style="rounded=0;whiteSpace=wrap;html=1;dashed=1;fillColor=none;" parent="1" vertex="1">
                    <mxGeometry x="137" y="1200" width="533" height="350" as="geometry"/>
                </mxCell>
                <mxCell id="YoeQHAKXdlg0IQOAOjzS-2" value="" style="rounded=0;whiteSpace=wrap;html=1;fillColor=none;" parent="1" vertex="1">
                    <mxGeometry x="150" y="1210" width="500" height="300" as="geometry"/>
                </mxCell>
                <mxCell id="YoeQHAKXdlg0IQOAOjzS-3" value="" style="rounded=0;whiteSpace=wrap;html=1;dashed=1;fillColor=none;" parent="1" vertex="1">
                    <mxGeometry x="40" y="1200" width="94" height="350" as="geometry"/>
                </mxCell>
                <mxCell id="YoeQHAKXdlg0IQOAOjzS-4" value="" style="rounded=0;whiteSpace=wrap;html=1;dashed=1;fillColor=none;" parent="1" vertex="1">
                    <mxGeometry x="673" y="1200" width="150" height="350" as="geometry"/>
                </mxCell>
                <mxCell id="YoeQHAKXdlg0IQOAOjzS-5" value="Cliente" style="rounded=0;whiteSpace=wrap;html=1;" parent="1" vertex="1">
                    <mxGeometry x="47" y="1345" width="80" height="60" as="geometry"/>
                </mxCell>
                <mxCell id="YoeQHAKXdlg0IQOAOjzS-6" value="API &lt;br&gt;Gateway" style="rounded=0;whiteSpace=wrap;html=1;" parent="1" vertex="1">
                    <mxGeometry x="169" y="1350" width="70" height="50" as="geometry"/>
                </mxCell>
                <mxCell id="YoeQHAKXdlg0IQOAOjzS-7" value="&lt;div&gt;&lt;span style=&quot;font-size: 10px&quot;&gt;Seen-MyAnimeList Database&lt;/span&gt;&lt;/div&gt;" style="shape=cylinder3;whiteSpace=wrap;html=1;boundedLbl=1;backgroundOutline=1;size=15;align=center;" parent="1" vertex="1">
                    <mxGeometry x="703" y="1374.5" width="90" height="60" as="geometry"/>
                </mxCell>
                <mxCell id="YoeQHAKXdlg0IQOAOjzS-8" value="Databases" style="text;html=1;strokeColor=none;fillColor=none;align=center;verticalAlign=middle;whiteSpace=wrap;rounded=0;dashed=1;" parent="1" vertex="1">
                    <mxGeometry x="728" y="1530" width="40" height="20" as="geometry"/>
                </mxCell>
                <mxCell id="YoeQHAKXdlg0IQOAOjzS-9" value="&lt;font style=&quot;font-size: 10px&quot;&gt;Seen&lt;br&gt;Database&lt;/font&gt;" style="shape=cylinder3;whiteSpace=wrap;html=1;boundedLbl=1;backgroundOutline=1;size=15;" parent="1" vertex="1">
                    <mxGeometry x="703" y="1442.5" width="90" height="60" as="geometry"/>
                </mxCell>
                <mxCell id="YoeQHAKXdlg0IQOAOjzS-10" value="Microservices" style="text;html=1;strokeColor=none;fillColor=none;align=center;verticalAlign=middle;whiteSpace=wrap;rounded=0;" parent="1" vertex="1">
                    <mxGeometry x="369" y="1210" width="95" height="20" as="geometry"/>
                </mxCell>
                <mxCell id="YoeQHAKXdlg0IQOAOjzS-11" value="Anime&lt;br&gt;Service" style="rounded=0;whiteSpace=wrap;html=1;fillColor=none;" parent="1" vertex="1">
                    <mxGeometry x="414" y="1377" width="90" height="55" as="geometry"/>
                </mxCell>
                <mxCell id="3" style="edgeStyle=orthogonalEdgeStyle;rounded=0;orthogonalLoop=1;jettySize=auto;html=1;exitX=1;exitY=0.5;exitDx=0;exitDy=0;entryX=0;entryY=0.5;entryDx=0;entryDy=0;startArrow=classic;startFill=1;" edge="1" parent="1" source="YoeQHAKXdlg0IQOAOjzS-12" target="2">
                    <mxGeometry relative="1" as="geometry"/>
                </mxCell>
                <mxCell id="YoeQHAKXdlg0IQOAOjzS-12" value="Account &lt;br&gt;Service" style="rounded=0;whiteSpace=wrap;html=1;fillColor=none;" parent="1" vertex="1">
                    <mxGeometry x="414" y="1445" width="90" height="55" as="geometry"/>
                </mxCell>
                <mxCell id="YoeQHAKXdlg0IQOAOjzS-13" value="" style="endArrow=classic;startArrow=classic;html=1;entryX=0;entryY=0.5;entryDx=0;entryDy=0;entryPerimeter=0;exitX=1;exitY=0.5;exitDx=0;exitDy=0;" parent="1" source="YoeQHAKXdlg0IQOAOjzS-11" target="YoeQHAKXdlg0IQOAOjzS-7" edge="1">
                    <mxGeometry width="50" height="50" relative="1" as="geometry">
                        <mxPoint x="627" y="1404.5" as="sourcePoint"/>
                        <mxPoint x="595" y="1605" as="targetPoint"/>
                    </mxGeometry>
                </mxCell>
                <mxCell id="YoeQHAKXdlg0IQOAOjzS-14" value="" style="endArrow=classic;startArrow=classic;html=1;exitX=1;exitY=0.5;exitDx=0;exitDy=0;entryX=0;entryY=0.5;entryDx=0;entryDy=0;entryPerimeter=0;" parent="1" source="2" target="YoeQHAKXdlg0IQOAOjzS-9" edge="1">
                    <mxGeometry width="50" height="50" relative="1" as="geometry">
                        <mxPoint x="627" y="1472.5" as="sourcePoint"/>
                        <mxPoint x="645" y="1425" as="targetPoint"/>
                    </mxGeometry>
                </mxCell>
                <mxCell id="YoeQHAKXdlg0IQOAOjzS-15" value="" style="endArrow=classic;startArrow=classic;html=1;exitX=1;exitY=0.5;exitDx=0;exitDy=0;entryX=0;entryY=0.5;entryDx=0;entryDy=0;" parent="1" source="YoeQHAKXdlg0IQOAOjzS-5" target="YoeQHAKXdlg0IQOAOjzS-33" edge="1">
                    <mxGeometry width="50" height="50" relative="1" as="geometry">
                        <mxPoint x="422" y="1475" as="sourcePoint"/>
                        <mxPoint x="189" y="1375" as="targetPoint"/>
                    </mxGeometry>
                </mxCell>
                <mxCell id="YoeQHAKXdlg0IQOAOjzS-16" value="" style="endArrow=classic;startArrow=classic;html=1;entryX=0;entryY=0.5;entryDx=0;entryDy=0;exitX=1;exitY=0.75;exitDx=0;exitDy=0;" parent="1" source="YoeQHAKXdlg0IQOAOjzS-29" target="YoeQHAKXdlg0IQOAOjzS-31" edge="1">
                    <mxGeometry width="50" height="50" relative="1" as="geometry">
                        <mxPoint x="299" y="1360" as="sourcePoint"/>
                        <mxPoint x="387.5" y="1404.5" as="targetPoint"/>
                    </mxGeometry>
                </mxCell>
                <mxCell id="YoeQHAKXdlg0IQOAOjzS-17" value="" style="endArrow=classic;startArrow=classic;html=1;exitX=1;exitY=0.75;exitDx=0;exitDy=0;entryX=0;entryY=0.5;entryDx=0;entryDy=0;" parent="1" source="YoeQHAKXdlg0IQOAOjzS-6" target="YoeQHAKXdlg0IQOAOjzS-38" edge="1">
                    <mxGeometry width="50" height="50" relative="1" as="geometry">
                        <mxPoint x="422" y="1475" as="sourcePoint"/>
                        <mxPoint x="384" y="1472.5" as="targetPoint"/>
                    </mxGeometry>
                </mxCell>
                <mxCell id="YoeQHAKXdlg0IQOAOjzS-18" value="Client" style="text;html=1;strokeColor=none;fillColor=none;align=center;verticalAlign=middle;whiteSpace=wrap;rounded=0;" parent="1" vertex="1">
                    <mxGeometry x="67" y="1530" width="40" height="20" as="geometry"/>
                </mxCell>
                <mxCell id="YoeQHAKXdlg0IQOAOjzS-19" value="Server" style="text;html=1;strokeColor=none;fillColor=none;align=center;verticalAlign=middle;whiteSpace=wrap;rounded=0;" parent="1" vertex="1">
                    <mxGeometry x="396.5" y="1530" width="40" height="20" as="geometry"/>
                </mxCell>
                <mxCell id="YoeQHAKXdlg0IQOAOjzS-20" value="IMDB&lt;br&gt;Service" style="rounded=0;whiteSpace=wrap;html=1;fillColor=none;" parent="1" vertex="1">
                    <mxGeometry x="414" y="1310" width="90" height="55" as="geometry"/>
                </mxCell>
                <mxCell id="YoeQHAKXdlg0IQOAOjzS-21" value="Book &lt;br&gt;Service" style="rounded=0;whiteSpace=wrap;html=1;fillColor=none;" parent="1" vertex="1">
                    <mxGeometry x="414" y="1240" width="90" height="55" as="geometry"/>
                </mxCell>
                <mxCell id="YoeQHAKXdlg0IQOAOjzS-22" value="&lt;h6&gt;&lt;span style=&quot;font-size: 8px ; font-weight: 400&quot;&gt;gRPC&lt;/span&gt;&lt;br&gt;&lt;/h6&gt;" style="whiteSpace=wrap;html=1;aspect=fixed;align=center;" parent="1" vertex="1">
                    <mxGeometry x="404" y="1255" width="25" height="25" as="geometry"/>
                </mxCell>
                <mxCell id="YoeQHAKXdlg0IQOAOjzS-23" value="" style="endArrow=classic;startArrow=classic;html=1;entryX=0;entryY=0.5;entryDx=0;entryDy=0;exitX=1;exitY=0.5;exitDx=0;exitDy=0;" parent="1" source="YoeQHAKXdlg0IQOAOjzS-29" target="YoeQHAKXdlg0IQOAOjzS-30" edge="1">
                    <mxGeometry width="50" height="50" relative="1" as="geometry">
                        <mxPoint x="299" y="1350" as="sourcePoint"/>
                        <mxPoint x="387.5" y="1337.5" as="targetPoint"/>
                    </mxGeometry>
                </mxCell>
                <mxCell id="YoeQHAKXdlg0IQOAOjzS-24" value="" style="endArrow=classic;startArrow=classic;html=1;exitX=1;exitY=0.25;exitDx=0;exitDy=0;entryX=0;entryY=0.5;entryDx=0;entryDy=0;" parent="1" source="YoeQHAKXdlg0IQOAOjzS-29" target="YoeQHAKXdlg0IQOAOjzS-22" edge="1">
                    <mxGeometry width="50" height="50" relative="1" as="geometry">
                        <mxPoint x="414" y="1340" as="sourcePoint"/>
                        <mxPoint x="464" y="1290" as="targetPoint"/>
                    </mxGeometry>
                </mxCell>
                <mxCell id="YoeQHAKXdlg0IQOAOjzS-25" value="&lt;font style=&quot;font-size: 10px&quot;&gt;Seen-IMDB Database&lt;/font&gt;" style="shape=cylinder3;whiteSpace=wrap;html=1;boundedLbl=1;backgroundOutline=1;size=15;" parent="1" vertex="1">
                    <mxGeometry x="703" y="1307.5" width="90" height="60" as="geometry"/>
                </mxCell>
                <mxCell id="YoeQHAKXdlg0IQOAOjzS-26" value="&lt;font style=&quot;font-size: 10px&quot;&gt;Seen-GoodReads Database&lt;/font&gt;" style="shape=cylinder3;whiteSpace=wrap;html=1;boundedLbl=1;backgroundOutline=1;size=15;" parent="1" vertex="1">
                    <mxGeometry x="703" y="1237.5" width="90" height="60" as="geometry"/>
                </mxCell>
                <mxCell id="YoeQHAKXdlg0IQOAOjzS-27" value="" style="endArrow=classic;startArrow=classic;html=1;entryX=0;entryY=0.5;entryDx=0;entryDy=0;entryPerimeter=0;exitX=1;exitY=0.5;exitDx=0;exitDy=0;" parent="1" source="YoeQHAKXdlg0IQOAOjzS-20" target="YoeQHAKXdlg0IQOAOjzS-25" edge="1">
                    <mxGeometry width="50" height="50" relative="1" as="geometry">
                        <mxPoint x="627" y="1337.5" as="sourcePoint"/>
                        <mxPoint x="695" y="1393.5" as="targetPoint"/>
                    </mxGeometry>
                </mxCell>
                <mxCell id="YoeQHAKXdlg0IQOAOjzS-28" value="" style="endArrow=classic;startArrow=classic;html=1;entryX=0;entryY=0.5;entryDx=0;entryDy=0;entryPerimeter=0;exitX=1;exitY=0.5;exitDx=0;exitDy=0;" parent="1" source="YoeQHAKXdlg0IQOAOjzS-21" target="YoeQHAKXdlg0IQOAOjzS-26" edge="1">
                    <mxGeometry width="50" height="50" relative="1" as="geometry">
                        <mxPoint x="627" y="1267.5" as="sourcePoint"/>
                        <mxPoint x="705" y="1403.5" as="targetPoint"/>
                    </mxGeometry>
                </mxCell>
                <mxCell id="YoeQHAKXdlg0IQOAOjzS-29" value="Library Service" style="rounded=0;whiteSpace=wrap;html=1;fillColor=none;" parent="1" vertex="1">
                    <mxGeometry x="274" y="1310" width="110" height="55" as="geometry"/>
                </mxCell>
                <mxCell id="YoeQHAKXdlg0IQOAOjzS-30" value="&lt;h6&gt;&lt;span style=&quot;font-size: 8px ; font-weight: 400&quot;&gt;gRPC&lt;/span&gt;&lt;br&gt;&lt;/h6&gt;" style="whiteSpace=wrap;html=1;aspect=fixed;align=center;" parent="1" vertex="1">
                    <mxGeometry x="404" y="1325" width="25" height="25" as="geometry"/>
                </mxCell>
                <mxCell id="YoeQHAKXdlg0IQOAOjzS-31" value="&lt;h6&gt;&lt;span style=&quot;font-size: 8px ; font-weight: 400&quot;&gt;gRPC&lt;/span&gt;&lt;br&gt;&lt;/h6&gt;" style="whiteSpace=wrap;html=1;aspect=fixed;align=center;" parent="1" vertex="1">
                    <mxGeometry x="404" y="1392" width="25" height="25" as="geometry"/>
                </mxCell>
                <mxCell id="YoeQHAKXdlg0IQOAOjzS-32" value="&lt;h6&gt;&lt;span style=&quot;font-size: 8px ; font-weight: 400&quot;&gt;gRPC&lt;/span&gt;&lt;br&gt;&lt;/h6&gt;" style="whiteSpace=wrap;html=1;aspect=fixed;align=center;" parent="1" vertex="1">
                    <mxGeometry x="404" y="1460" width="25" height="25" as="geometry"/>
                </mxCell>
                <mxCell id="YoeQHAKXdlg0IQOAOjzS-33" value="&lt;h6&gt;&lt;font style=&quot;font-size: 8px ; line-height: 120% ; font-weight: normal&quot;&gt;REST API&lt;/font&gt;&lt;/h6&gt;" style="whiteSpace=wrap;html=1;aspect=fixed;align=center;" parent="1" vertex="1">
                    <mxGeometry x="154" y="1362.5" width="25" height="25" as="geometry"/>
                </mxCell>
                <mxCell id="YoeQHAKXdlg0IQOAOjzS-34" value="&lt;h6&gt;&lt;font style=&quot;font-size: 8px ; line-height: 120% ; font-weight: normal&quot;&gt;gRPC&lt;/font&gt;&lt;/h6&gt;" style="whiteSpace=wrap;html=1;aspect=fixed;align=center;" parent="1" vertex="1">
                    <mxGeometry x="254" y="1325" width="25" height="25" as="geometry"/>
                </mxCell>
                <mxCell id="YoeQHAKXdlg0IQOAOjzS-35" value="" style="endArrow=classic;startArrow=classic;html=1;exitX=1;exitY=0.25;exitDx=0;exitDy=0;entryX=0;entryY=0.5;entryDx=0;entryDy=0;" parent="1" source="YoeQHAKXdlg0IQOAOjzS-6" target="YoeQHAKXdlg0IQOAOjzS-34" edge="1">
                    <mxGeometry width="50" height="50" relative="1" as="geometry">
                        <mxPoint x="404" y="1380" as="sourcePoint"/>
                        <mxPoint x="454" y="1330" as="targetPoint"/>
                    </mxGeometry>
                </mxCell>
                <mxCell id="YoeQHAKXdlg0IQOAOjzS-36" value="" style="endArrow=classic;startArrow=classic;html=1;exitX=0.5;exitY=1;exitDx=0;exitDy=0;entryX=0;entryY=0;entryDx=0;entryDy=0;" parent="1" source="YoeQHAKXdlg0IQOAOjzS-29" target="YoeQHAKXdlg0IQOAOjzS-32" edge="1">
                    <mxGeometry width="50" height="50" relative="1" as="geometry">
                        <mxPoint x="390" y="1440" as="sourcePoint"/>
                        <mxPoint x="404" y="1460" as="targetPoint"/>
                    </mxGeometry>
                </mxCell>
                <mxCell id="YoeQHAKXdlg0IQOAOjzS-37" value="SignIn&lt;br&gt;Service" style="rounded=0;whiteSpace=wrap;html=1;fillColor=none;" parent="1" vertex="1">
                    <mxGeometry x="279" y="1445" width="90" height="55" as="geometry"/>
                </mxCell>
                <mxCell id="YoeQHAKXdlg0IQOAOjzS-38" value="&lt;h6&gt;&lt;span style=&quot;font-size: 8px ; font-weight: 400&quot;&gt;gRPC&lt;/span&gt;&lt;br&gt;&lt;/h6&gt;" style="whiteSpace=wrap;html=1;aspect=fixed;align=center;" parent="1" vertex="1">
                    <mxGeometry x="269" y="1460" width="25" height="25" as="geometry"/>
                </mxCell>
                <mxCell id="YoeQHAKXdlg0IQOAOjzS-39" value="" style="endArrow=classic;startArrow=classic;html=1;exitX=1;exitY=0.5;exitDx=0;exitDy=0;entryX=0;entryY=0.5;entryDx=0;entryDy=0;" parent="1" source="YoeQHAKXdlg0IQOAOjzS-37" target="YoeQHAKXdlg0IQOAOjzS-32" edge="1">
                    <mxGeometry width="50" height="50" relative="1" as="geometry">
                        <mxPoint x="339" y="1375" as="sourcePoint"/>
                        <mxPoint x="414" y="1470" as="targetPoint"/>
                    </mxGeometry>
                </mxCell>
                <mxCell id="2" value="Spark&lt;br&gt;Service" style="rounded=0;whiteSpace=wrap;html=1;fillColor=none;" vertex="1" parent="1">
                    <mxGeometry x="540" y="1445" width="90" height="55" as="geometry"/>
                </mxCell>
            </root>
        </mxGraphModel>
    </diagram>
</mxfile>